<?xml version="1.0" encoding="utf-8"?>
<!-- Generator: Adobe Illustrator 26.0.3, SVG Export Plug-In . SVG Version: 6.00 Build 0)  -->
<svg version="1.1" id="レイヤー_1" xmlns="http://www.w3.org/2000/svg" xmlns:xlink="http://www.w3.org/1999/xlink" x="0px"
	 y="0px" viewBox="0 0 259.8 372.3" style="enable-background:new 0 0 259.8 372.3;" xml:space="preserve">
<style type="text/css">
	.st0{fill:#FFFFFF;stroke:#FFFFFF;stroke-width:30;stroke-linecap:round;stroke-linejoin:round;stroke-miterlimit:10;}
	.st1{fill:#231815;stroke:#FFFFFF;stroke-width:30;stroke-linecap:round;stroke-linejoin:round;stroke-miterlimit:10;}
	.st2{fill:#FFFFFF;}
	.st3{fill:#231815;}
	.st4{fill:none;stroke:#231815;stroke-width:7;stroke-linecap:round;stroke-linejoin:round;stroke-miterlimit:10;}
</style>
<g>
	<g>
		<g>
			<path class="st0" d="M129.9,226.7L129.9,226.7c-1.2,0-2.4-0.1-3.5-0.3v0.7c0,2,1.6,3.6,3.5,3.6s3.5-1.6,3.5-3.6v-0.7
				C132.2,226.5,131.1,226.7,129.9,226.7L129.9,226.7z"/>
			<path class="st0" d="M129.9,129.5c-1.9,0-3.5,1.6-3.5,3.6v93.3c1.2,0.2,2.3,0.3,3.5,0.3l0,0l0,0c1.2,0,2.3-0.1,3.5-0.3v-93.3
				C133.4,131.1,131.9,129.5,129.9,129.5z"/>
			<path class="st1" d="M153.4,104.2c2.1-1.2,4.3-2.7,6.6-4.3c12.1-8.6,20.3-18.9,23.6-29.7c4-13,1.2-26.7-8.1-40.7
				c-0.9-1.3-2.5-1.8-4-1.4c-1-0.3-2.1-0.2-3,0.4c-1.6,1.1-2,3.2-1,4.9c8.1,12.2,10.6,23.9,7.3,34.8c-0.4,1.3-0.9,2.5-1.4,3.8
				c-2.2-8-7.6-14-11.4-16.8c-0.9-0.7-2.1-0.8-3.1-0.5c-1.4-0.4-2.9,0-3.9,1.2c-1.1,1.5-0.8,3.7,0.7,4.9c0.5,0.4,13,9.9,8.6,24.4
				c-8.5,8.9-19.1,14.6-23.9,16.9c-3.3,1.1-6.9,1.8-10.5,1.8c-3.7-0.1-7.2-0.7-10.5-1.8c-4.8-2.3-15.4-8-23.9-16.9
				c-4.4-14.5,8-24,8.5-24.4c1.6-1.1,1.9-3.3,0.8-4.9c-0.9-1.2-2.5-1.7-3.9-1.3c-1-0.3-2.2-0.2-3.1,0.5c-3.8,2.8-9.2,8.8-11.4,16.8
				c-0.5-1.2-1-2.5-1.4-3.8c-3.3-10.8-0.9-22.5,7.3-34.8c1.1-1.6,0.6-3.8-1-4.9c-0.9-0.6-2-0.7-3-0.4c-1.4-0.5-3.1,0.1-4,1.4
				c-9.3,14.2-12,27.9-8.1,40.9c3.3,10.8,11.4,21,23.6,29.7c2.3,1.6,4.5,3.1,6.6,4.3c-4.9,6.5-8.9,14.9-11.6,24.6H165
				C162.4,119.1,158.4,110.7,153.4,104.2z"/>
			<path class="st1" d="M166.5,134.9C166.5,134.9,166.5,134.8,166.5,134.9h-33.3c0.1,0.3,0.1,0.6,0.1,1v90.7
				c14.3-2.2,26.4-17.9,32.1-39.8c16.2,6.5,38.5,0.4,38.5,0.4l-14.6-17.1c2.4-0.4,4.8-0.8,7.1-1.3c1.1-0.2,2.1-0.5,3.2-0.7
				c4.2-1,8.1-2.3,11.8-3.7c0.9-0.4,1.8-0.7,2.7-1.1c1.8-0.8,3.5-1.5,5.1-2.4c12.9-6.6,21-15.8,21-26L166.5,134.9L166.5,134.9z"/>
			<path class="st1" d="M93.2,134.9H19.5c0,10.2,8,19.3,21,26c1.6,0.8,3.3,1.6,5.1,2.4c0.9,0.4,1.8,0.7,2.7,1.1
				c3.7,1.4,7.6,2.6,11.8,3.7c1,0.3,2.1,0.5,3.2,0.7c2.3,0.5,4.7,0.9,7.1,1.3l-14.6,17c0,0,22.3,6.2,38.5-0.4
				c5.7,21.9,17.8,37.6,32.1,39.8v-90.7c0-0.3,0.1-0.7,0.2-1L93.2,134.9C93.3,134.8,93.3,134.8,93.2,134.9z"/>
			<path class="st0" d="M129.9,132.3c-1.6,0-2.9,1.1-3.3,2.5h6.7C132.9,133.3,131.5,132.3,129.9,132.3z"/>
		</g>
		<g>
			<path class="st2" d="M129.9,226.7L129.9,226.7c-1.2,0-2.4-0.1-3.5-0.3v0.7c0,2,1.6,3.6,3.5,3.6s3.5-1.6,3.5-3.6v-0.7
				C132.2,226.5,131.1,226.7,129.9,226.7L129.9,226.7z"/>
			<path class="st2" d="M129.9,129.5c-1.9,0-3.5,1.6-3.5,3.6v93.3c1.2,0.2,2.3,0.3,3.5,0.3l0,0l0,0c1.2,0,2.3-0.1,3.5-0.3v-93.3
				C133.4,131.1,131.9,129.5,129.9,129.5z"/>
			<path class="st3" d="M153.4,104.2c2.1-1.2,4.3-2.7,6.6-4.3c12.1-8.6,20.3-18.9,23.6-29.7c4-13,1.2-26.7-8.1-40.7
				c-0.9-1.3-2.5-1.8-4-1.4c-1-0.3-2.1-0.2-3,0.4c-1.6,1.1-2,3.2-1,4.9c8.1,12.2,10.6,23.9,7.3,34.8c-0.4,1.3-0.9,2.5-1.4,3.8
				c-2.2-8-7.6-14-11.4-16.8c-0.9-0.7-2.1-0.8-3.1-0.5c-1.4-0.4-2.9,0-3.9,1.2c-1.1,1.5-0.8,3.7,0.7,4.9c0.5,0.4,13,9.9,8.6,24.4
				c-8.5,8.9-19.1,14.6-23.9,16.9c-3.3,1.1-6.9,1.8-10.5,1.8c-3.7-0.1-7.2-0.7-10.5-1.8c-4.8-2.3-15.4-8-23.9-16.9
				c-4.4-14.5,8-24,8.5-24.4c1.6-1.1,1.9-3.3,0.8-4.9c-0.9-1.2-2.5-1.7-3.9-1.3c-1-0.3-2.2-0.2-3.1,0.5c-3.8,2.8-9.2,8.8-11.4,16.8
				c-0.5-1.2-1-2.5-1.4-3.8c-3.3-10.8-0.9-22.5,7.3-34.8c1.1-1.6,0.6-3.8-1-4.9c-0.9-0.6-2-0.7-3-0.4c-1.4-0.5-3.1,0.1-4,1.4
				c-9.3,14.2-12,27.9-8.1,40.9c3.3,10.8,11.4,21,23.6,29.7c2.3,1.6,4.5,3.1,6.6,4.3c-4.9,6.5-8.9,14.9-11.6,24.6H165
				C162.4,119.1,158.4,110.7,153.4,104.2z"/>
			<path class="st3" d="M166.5,134.9C166.5,134.9,166.5,134.8,166.5,134.9h-33.3c0.1,0.3,0.1,0.6,0.1,1v90.7
				c14.3-2.2,26.4-17.9,32.1-39.8c16.2,6.5,38.5,0.4,38.5,0.4l-14.6-17.1c2.4-0.4,4.8-0.8,7.1-1.3c1.1-0.2,2.1-0.5,3.2-0.7
				c4.2-1,8.1-2.3,11.8-3.7c0.9-0.4,1.8-0.7,2.7-1.1c1.8-0.8,3.5-1.5,5.1-2.4c12.9-6.6,21-15.8,21-26L166.5,134.9L166.5,134.9z"/>
			<path class="st3" d="M93.2,134.9H19.5c0,10.2,8,19.3,21,26c1.6,0.8,3.3,1.6,5.1,2.4c0.9,0.4,1.8,0.7,2.7,1.1
				c3.7,1.4,7.6,2.6,11.8,3.7c1,0.3,2.1,0.5,3.2,0.7c2.3,0.5,4.7,0.9,7.1,1.3l-14.6,17c0,0,22.3,6.2,38.5-0.4
				c5.7,21.9,17.8,37.6,32.1,39.8v-90.7c0-0.3,0.1-0.7,0.2-1L93.2,134.9C93.3,134.8,93.3,134.8,93.2,134.9z"/>
			<path class="st2" d="M129.9,132.3c-1.6,0-2.9,1.1-3.3,2.5h6.7C132.9,133.3,131.5,132.3,129.9,132.3z"/>
		</g>
	</g>
	<line class="st4" x1="109.3" y1="269.1" x2="109.3" y2="297.9"/>
	<line class="st4" x1="109.3" y1="269.1" x2="109.3" y2="297.9"/>
	<g>
		<line class="st4" x1="129.4" y1="257.1" x2="129.4" y2="321.5"/>
		<line class="st4" x1="149.9" y1="269.1" x2="149.9" y2="297.9"/>
	</g>
</g>
</svg>
