<?xml version="1.0" encoding="utf-8"?>
<!-- Generator: Adobe Illustrator 26.0.3, SVG Export Plug-In . SVG Version: 6.00 Build 0)  -->
<svg version="1.1" id="レイヤー_1" xmlns="http://www.w3.org/2000/svg" xmlns:xlink="http://www.w3.org/1999/xlink" x="0px"
	 y="0px" viewBox="0 0 300 300" style="enable-background:new 0 0 300 300;" xml:space="preserve">
<style type="text/css">
	.st0{fill:#231815;}
	.st1{fill:#FFD007;}
	.st2{display:none;}
	.st3{display:inline;fill:#014D99;}
</style>
<path class="st0" d="M229.04,19.94c0,0-3.61-9.98-3.66-10.11L224.73,8l-1.77,0.8c-19.28,8.72-36.67,22.18-50.31,38.92
	C161.62,61.3,153.79,77.6,150.03,94.5c-7.98-35.9-35.65-68.78-72.97-85.69L75.3,8l-4.95,13.68l1.77,0.57
	c2.25,0.72,4.77,1.75,6.48,2.49c26.24,11.38,47.35,30.1,59.44,52.73c4.55,8.45,7.99,17.88,10.22,28.04l1.78-0.3l1.72,0.29
	c3.21-14.92,9.3-28.58,18.1-40.57c14.25-19.2,34.89-34.36,58.1-42.7l1.69-0.61L229.04,19.94z"/>
<path class="st1" d="M140.98,139.3"/>
<polygon class="st0" points="140.33,250.67 140.33,138.38 83.81,205.14 "/>
<circle class="st0" cx="70.97" cy="139.65" r="69.56"/>
<circle class="st0" cx="97.55" cy="249.01" r="42.99"/>
<polygon class="st0" points="159.67,250.67 159.67,138.38 216.19,205.14 "/>
<circle class="st0" cx="229.03" cy="139.65" r="69.56"/>
<circle class="st0" cx="202.45" cy="249.01" r="42.99"/>
<path class="st1" d="M155.51,139.3"/>
<g class="st2">
	<path class="st3" d="M86.92,1129.32c31.65,14.34,57.7,44.04,61.66,79.24c-1.83-8.35-4.69-16.42-8.7-23.85
		c-10.85-20.3-29.54-35.72-50.47-44.79c-1.77-0.76-3.8-1.57-5.56-2.13C83.86,1137.78,86.92,1129.32,86.92,1129.32L86.92,1129.32z"/>
	<path class="st3" d="M213.31,1137.78c-19.4,6.97-36.98,19.64-49.32,36.25c-7.52,10.26-12.72,22.02-15.41,34.53
		c2.06-17.12,9.2-33.67,20.11-47.09c11.12-13.66,25.46-24.87,41.56-32.15C210.25,1129.32,213.31,1137.78,213.31,1137.78
		L213.31,1137.78z"/>
</g>
</svg>
